<?xml version="1.0" encoding="utf-8"?>
<!-- Generator: Adobe Illustrator 27.5.0, SVG Export Plug-In . SVG Version: 6.00 Build 0)  -->
<svg version="1.1" xmlns="http://www.w3.org/2000/svg" xmlns:xlink="http://www.w3.org/1999/xlink" x="0px" y="0px"
	 viewBox="0 0 500 500" style="enable-background:new 0 0 500 500;" xml:space="preserve">
<g id="BACKGROUND">
</g>
<g id="OBJECTS">
	<g>
		<g>
			<path style="fill:#F7EBEB;" d="M284.02,104.967c0.137-1.499-0.648-2.614-1.545-3.673c-2.326-2.745-4.838-5.301-7.664-7.541
				c-2.57-2.038-4.941-4.284-7.054-6.803c-3.966-4.726-6.195-10.37-8.49-15.979c-0.781-1.909-1.628-3.78-2.961-5.366
				c-1.245-1.482-2.415-1.465-3.652,0.035c-0.564,0.685-1.012,1.475-1.452,2.251c-3.444,6.088-4.809,12.761-5.234,19.63
				c-0.456,7.376,0.988,14.437,4.218,21.107c0.154,0.318,0.219,0.58-0.109,0.976c-2.409-0.974-3.555-3.492-5.658-5.059
				c-0.09,0.816-0.039,1.373,0.077,1.955c0.75,3.777,3.028,6.667,5.442,9.476c1.62,1.885,3.195,3.786,4.011,6.192
				c0.159,0.467,0.417,1.118,0.05,1.328c-1.109,0.636-0.757,1.629-0.765,2.5c-0.029,2.908-0.563,5.742-1.037,8.596
				c-0.806,4.858-3.458,8.362-7.534,10.952c-2.604,1.654-5.376,2.729-8.542,2.853c2.57,1.316,5.047,2.745,8.312,2.807
				c-2.061,4.087-5.812,5.606-9.318,7.441c2.073,0.787,3.691-0.546,5.67-0.622c-1.744,2.886-5.286,4.255-6.466,7.57
				c0.789,0.348,1.229-0.456,1.874-0.565c0.408-0.069,0.876-0.202,1.109,0.296c0.186,0.396-0.059,0.682-0.348,0.958
				c-0.184,0.175-0.629,0.168-0.485,0.69c4.643-0.217,9.257-0.111,13.696,1.575c4.394,1.669,8.618,3.643,12.136,6.319
				c18.296-11.166,36.378-10.096,54.641-0.119c-0.075,0.066,0.032,0.011,0.077-0.075c0.095-0.184,0.158-0.383,0.232-0.578
				c1.951-5.159,4.692-9.786,9.1-13.245c1.953-1.532,4.017-2.838,6.59-3.182c1.66-0.222,3.399-0.434,4.693-1.711
				c-0.645-1.239-2.352-0.808-3.011-2.334c1.933-0.049,3.722,0.789,5.646,0.167c-0.354-0.211-0.522-0.338-0.709-0.418
				c-2.42-1.035-4.405-2.668-6.205-4.543c-0.316-0.329-0.721-0.75-0.405-1.249c0.373-0.587,0.847-0.174,1.24,0.037
				c1.221,0.656,2.557,1.003,3.894,1.169c1.534,0.19,3.089,0.06,4.23-1.126c-0.169-0.578-0.473-0.624-0.782-0.734
				c-5.491-1.952-9.466-5.664-12.068-10.794c-2.668-5.26-3.933-11-4.899-16.749c-1.249-7.434-3.347-14.477-7.437-20.884
				c-4.619-7.237-7.759-15.028-8.567-23.672c-0.199-2.135-0.413-4.308-1.246-6.331c-0.967-2.348-2.329-2.573-3.953-0.682
				c-0.171,0.199-0.339,0.406-0.472,0.631c-1.525,2.578-3.032,5.166-4.067,7.992c-2.223,6.065-3.235,12.385-3.728,18.784
				c-0.173,2.243-0.236,4.529,0.138,6.791c0.131,0.791,0.451,1.105,1.25,1.32c3.613,0.972,7.067,2.352,10.213,4.419
				c0.442,0.29,1.051,0.442,1.173,1.41c-7.175-4.085-14.734-6.008-22.766-5.931c-0.343,0.719,0.105,1.742-1.045,1.805
				L284.02,104.967z"/>
			<path style="fill:#F7EBEB;" d="M90.991,361.15c1.789,9.494,6.629,20.309,12.632,28.75c3.982,5.599,9.088,9.763,15.28,12.672
				c5.681,2.668,11.707,4.038,17.886,4.841c5.097,0.663,10.201,0.821,15.245-0.353c2.781-0.648,5.546-1.427,8.073-2.991
				c-0.402-0.629-0.684-1.136-1.027-1.598c-8.482-11.452-10.914-24.28-8.844-38.193c0.953-6.406,2.891-12.502,5.419-18.418
				c3.424-8.011,7.693-15.565,14.076-21.589c14.079-13.287,31.186-18.264,50.198-17.538c3.145,0.12,6.271,0.715,9.185,2.056
				c0.544,0.251,1.225,0.391,1.156,1.276c-0.613,0.082-1.168,0.074-1.754-0.043c-2.06-0.409-4.12-0.974-6.202-1.092
				c-7.236-0.41-14.461-0.086-21.533,1.57c-17.612,4.124-31.489,13.365-39.971,29.767c-4.753,9.19-8.024,18.774-8.814,29.238
				c-0.778,10.311,1.291,19.703,6.707,28.508c3.589,5.834,8.003,10.972,12.326,16.23c4.683,5.697,9.888,11.052,11.749,18.678
				c0.634,2.599,0.671,4.909,0.199,7.378c-0.52,2.718-1.829,5.064-3.584,7.197c2.623-1.27,4.439-3.36,6.11-5.604
				c0.336-0.452,0.575-1.158,1.309-0.797c0.738,0.363,0.329,1.025,0.167,1.539c-1.112,3.543-2.798,6.799-4.968,9.809
				c-1.696,2.353-3.897,4.174-6.48,5.884c1.542,0.212,2.771-0.01,4.017-0.181c7.821-1.072,15.145-3.284,21.522-8.251
				c5.578-4.345,10.879-8.9,14.467-15.091c3.797-6.551,5.967-13.674,6.865-21.167c0.158-1.318,0.583-2.801-0.991-3.975
				c-13.293-9.918-19.468-23.9-21.975-39.722c-1.253-7.91,0.057-15.753,2.678-23.323c4.85-14.008,14.634-23.628,27.356-30.614
				c0.29-0.159,0.58-0.236,0.914,0.095c-0.617,1.286-1.793,2.017-2.932,2.733c-4.449,2.797-8.418,6.165-12.073,9.923
				c-11.536,11.862-16.062,26.176-14,42.388c1.068,8.392,4.271,16.278,8.89,23.443c6.496,10.077,15.299,17.219,27.045,20.295
				c5.282,1.383,10.663,2.383,15.979,3.642c7.292,1.727,14.219,4.329,20.103,9.136c4.307,3.519,7.528,7.75,8.564,13.418
				c0.417,2.285,0.387,4.5-0.152,6.757c1.071-0.945,1.543-2.13,1.896-3.408c0.136-0.493,0.137-1.272,0.961-1.241
				c0.664,0.026,0.992,0.55,1.215,1.1c0.919,2.264,1.544,4.536,1.051,7.059c-0.236,1.205-0.62,2.477-0.37,3.941
				c4.148-3.09,7.789-6.435,11.342-9.898c10.146-9.89,15.818-21.828,16.419-36.017c0.308-7.266,0.347-14.55-1.18-21.732
				c-2.965-13.947-8.378-26.572-18.748-36.835c-10.958-10.845-23.722-18.421-38.483-22.735c-0.394-0.115-1.012-0.032-1.19-0.877
				c1.568-0.604,3.068,0.096,4.475,0.466c24.642,6.482,41.604,21.772,51.354,45.248c4.856-2.06,9.765-3.137,14.733-3.993
				c5.331-0.919,10.658-1.389,15.963,0.168c3.229,0.948,6.435,1.964,9.625,3.045c7.34,2.488,14.79,3.422,22.642,1.192
				c-2.774-0.842-5.622-0.916-7.724-3.084c6.898,1.37,13.336-0.109,19.642-2.534c-4.083-0.515-8.002-1.321-11.654-3.284
				c-6.073-3.265-10.466-8.303-14.535-13.65c-5.305-6.97-9.832-14.476-14.371-21.946c-4.478-7.369-10.061-13.682-16.759-18.999
				c-4.89-3.881-10.567-6.523-16.131-9.291c-7.194-3.578-14.789-5.789-22.842-6.208c-8.476-0.442-16.808,0.617-25.06,2.522
				c-8.998,2.077-17.173,5.695-23.794,12.336c-0.28,0.281-0.55,0.671-1.057,0.491c-0.301-1.088-0.308-1.093,0.364-1.951
				c2.662-3.399,6.168-5.744,9.927-7.702c9.764-5.086,20.369-6.833,31.193-7.594c1.159-0.082,2.042-0.237,2.86-1.212
				c3.13-3.731,5.792-7.783,8.417-11.864c4.779-7.43,8.571-15.562,15.358-21.561c0.416-0.368,0.463-0.773,0.318-1.277
				c-2.671-9.234-4.758-18.635-7.913-27.731c-0.259-0.747-0.458-1.447,0.072-2.674c5.366,9.449,7.351,19.561,9.684,29.661
				c2.722-2.127,5.677-3.737,8.603-5.398c2.973-1.688,6.126-2.964,9.354-4.052c-3.762-11.027-6.987-30.67-5.255-33.254
				c1.576,3.493,1.573,7.14,2.259,10.614c0.698,3.534,1.203,7.107,1.793,10.662c4.76-8.19,6.793-16.576,2.535-25.687
				c2.687,0.003,4.66,2.077,7.193,1.744c-3.046-1.275-4.636-3.76-5.811-6.596c-1.944-4.688-5.02-8.515-8.875-11.756
				c-0.891-0.749-1.819-1.471-3.019-1.606c-1.737-0.194-3.417-0.628-5.051-1.206c-8.194-2.895-16.598-4.178-25.297-3.636
				c-4.576,0.285-9.107,0.839-13.645,1.455c-3.607,0.489-6.696,2.477-10.208,3.182c-0.437,0.088-0.62,0.532-0.839,0.897
				c-1.956,3.266-3.578,6.692-4.628,10.349c-1.228,4.278-1.356,8.712-1.706,13.121c-0.487,6.136-0.933,12.271-1.696,18.392
				c-0.918,7.368-3.921,13.345-9.835,17.841c-3.774,2.869-6.529,6.55-8.588,10.784c-2.908,5.979-4.421,12.333-5.202,18.906
				c-0.944,7.949-0.533,15.738,2.386,23.28c0.129,0.334,0.368,0.645-0.016,0.977c-0.594-0.147-0.804-0.64-1.024-1.114
				c-1.018-2.192-1.955-4.422-2.528-6.773c-1.438-5.899-1.601-11.874-0.967-17.892c0.576-5.467,1.526-10.829,3.999-15.817
				c0.708-1.428,1.01-2.981,1.074-4.57c0.434-10.845-2.458-20.92-7.745-30.222c-6.35-11.172-15.227-20.313-24.689-28.882
				c-4.541-4.113-9.748-7.399-14.426-11.349c-4.082-3.447-8.299-6.992-10.985-11.519c-5.425-9.144-8.076-19.116-5.993-29.921
				c-0.248-0.151-0.442,0.068-0.667,0.173c-5.508,2.553-10.012,6.372-13.893,10.984c-1.2,1.426-2.107,3.007-2.653,4.791
				c-0.214,0.698-0.106,1.914-1.221,1.559c-0.916-0.292-0.459-1.395-0.303-2.117c0.177-0.814,0.529-1.596,0.854-2.372
				c0.251-0.598,0.406-1.186,0.182-2.041c-4.214,3.351-6.917,7.719-9.359,12.266c-2.424,4.515-4.286,9.24-5.22,14.322
				c-0.936,5.092-0.053,10.144,0.248,15.24c-2.453-2.519-3.987-5.418-4.751-8.957c-0.583,3.629-1.033,6.996-0.477,10.441
				c0.605,3.753,1.279,7.461,3.194,10.822c0.396,0.695,0.844,1.047,1.729,1.061c7.035,0.112,13.924,1.206,20.68,3.184
				c14.656,4.292,27.613,11.551,38.196,22.606c11.95,12.483,19.232,27.616,23.964,44.079c0.06,0.21,0.116,0.529-0.328,0.643
				c-0.76-0.654-1.216-1.546-1.507-2.483c-1.943-6.251-4.812-12.1-7.659-17.967c-8.799-18.133-22.128-31.673-40.497-40.148
				c-11.912-5.496-24.466-7.955-37.539-8.032c-2.53-0.015-5.057,0.054-7.593-0.182c-3.125-0.29-6.136-1.049-9.402-1.951
				c1.537,1.24,3.344,1.345,4.825,2.524c-2.312,1.806-4.466,0.006-6.78,0.054c2.674,2.403,5.513,4.429,7.984,6.991
				c-1.325,1.008-2.306,0.112-3.217-0.279c-9.142-3.927-18.542-5.887-28.494-3.992c-1.341,0.255-2.706,0.41-4.027,0.739
				c-1.316,0.328-2.707,0.446-3.97,1.07c0.262,0.453,0.613,0.353,0.908,0.423c6.203,1.472,10.898,4.877,13.642,10.733
				c1.939,4.137,3.06,8.469,3.378,13.056c0.36,5.195,1.162,10.363,1.425,15.561c0.236,4.677,1.063,9.174,2.56,13.59
				c1.152,3.396,2.98,6.253,5.992,8.291c0.751,0.508,1.484,0.84,2.442,0.901c4.35,0.278,8.498-0.547,12.524-2.099
				c7.4-2.854,14.71-5.906,22.411-7.974c7.997-2.147,15.96-3.483,24.298-2.712c7.975,0.738,15.685,2.367,23.186,5.122
				c12.618,4.633,23.543,11.547,31.139,22.976c0.415,0.624,1.098,1.148,0.918,2.121c-1.025,0.028-1.326-0.809-1.824-1.353
				c-5.876-6.409-12.158-12.364-19.886-16.501c-13.49-7.222-27.681-11.661-43.243-10.378c-4.977,0.41-9.948,0.773-14.767,2.22
				c-6.915,2.077-13.482,5.029-20.12,7.82c-4.693,1.973-9.496,3.374-14.77,3.01c-7.556-0.521-13.572-3.926-18.71-9.151
				c-4.334-4.407-8.116-9.297-11.884-14.19c-0.658-0.855-1.218-1.827-2.281-2.449c-0.739,1.642-0.929,3.308-1.053,4.969
				c-0.368,4.915,0.58,9.631,2.298,14.213c0.189,0.505,0.517,1.072-0.07,1.392c-0.676,0.368-1.063-0.211-1.317-0.757
				c-0.57-1.225-1.108-2.464-1.66-3.697c-1.695,11.608,0.845,22.563,4.888,33.271c4.105,10.871,10.641,20,19.966,27.169
				c-3.117-0.665-5.748-2.166-8.391-3.73c-0.023,0.171-0.05,0.234-0.031,0.255c7.135,7.919,15.245,14.277,26.168,15.923
				c2.19,0.33,4.475,0.797,6.654-0.415c6.95-3.867,13.337-8.486,19.105-13.97c3.987-3.79,7.469-8.048,11.277-12.001
				c7.774-8.069,16.281-15.204,26.478-20.049c5.102-2.424,10.431-4.157,16.155-4.555c5.545-0.385,10.893,0.573,16.237,1.826
				c4.615,1.082,8.863,2.967,12.793,5.594c0.491,0.328,1.142,0.627,0.706,1.51c-1.296-0.264-2.377-0.92-3.489-1.472
				c-6.805-3.378-14.087-4.966-21.59-5.448c-7.471-0.48-14.361,1.878-20.902,5.22c-9.852,5.035-18.105,12.163-25.568,20.226
				c-6.531,7.056-12.971,14.177-21.153,19.443c-5.592,3.599-11.199,7.16-17.756,8.735c-3.005,0.722-6.067,1.499-9.201,1.063
				c-7.452-1.038-13.238-4.884-17.758-10.783c-0.423-0.552-0.843-1.106-1.465-1.922c-0.173,3.794,0.508,7.091,1.059,10.402
				c0.763,4.582,2.626,8.741,4.844,12.773c0.289,0.525,0.751,1.198,0.137,1.736c-0.693,0.607-1.273-0.005-1.792-0.434
				C94.298,363.941,92.734,362.614,90.991,361.15z"/>
			<path style="fill:#F7EBEB;" d="M422.405,292.428c-5.883-0.219-8.195-0.842-12.124-3.331c-5.678-3.596-10.534-8.099-14.521-13.507
				c-2.098-2.845-4.143-5.716-6.568-8.308c-8.661-9.259-19.556-14.697-31.485-18.247c-8.638-2.57-17.505-3.514-26.362-1.394
				c-14.108,3.377-24.715,11.563-31.957,24.151c-4.1,7.127-8.271,14.22-14.049,20.188c-0.036,0.038,0.04,0.184,0.083,0.356
				c2.777-0.004,5.577,0.047,8.342,0.453c6.071,0.892,11.854,2.724,17.471,5.22c12.496,5.551,23.502,13.005,31.686,24.17
				c0.62,0.845,1.174,0.594,1.896,0.341c4.716-1.655,8.445-4.629,11.62-8.432c6.841-8.193,15.467-11.752,26.212-10.426
				c4.579,0.565,9.222,1.096,13.877,0.763c2.51-0.18,4.975-0.583,7.601-1.782c-1.133-0.176-1.94-0.288-2.742-0.427
				c-2.169-0.378-4.307-0.881-6.396-1.585c-0.527-0.178-1.068-0.451-0.948-1.066c0.147-0.753,0.779-0.724,1.396-0.565
				c0.202,0.052,0.424,0.018,0.628,0.064c5.632,1.246,11.11,0.36,16.482-1.339C416.008,296.629,419.188,294.914,422.405,292.428z"/>
			<path style="fill:#BA3217;" d="M306.663,171.802c-2.504-0.704-4.762-1.398-7.053-1.957c-1.006-0.246-2.043-0.542-3.118-0.355
				c-4.28,0.744-8.023,2.466-10.768,5.967c-1.543,1.968-2.792,4.055-2.748,6.699c0.02,1.204,0.462,1.776,1.699,1.564
				c2.564-0.438,5.152-0.304,7.734-0.32c1.361-0.009,2.723-0.002,4.096-0.002C295.701,178.326,298.913,174.627,306.663,171.802z"/>
			<path style="fill:#701608;" d="M282.301,183.95c-1.378-6.006,2.524-11.119,11.331-15.022c-2.596-0.571-5.234-0.168-7.856-0.061
				c-6.25,0.255-10.704,3.447-13.521,8.889c-1.27,2.454-1.796,5.121-0.405,7.841C275.309,184.816,278.711,184.213,282.301,183.95z"
				/>
			<path style="fill:#701608;" d="M308.628,185.751c-0.357-5.494,3.231-7.47,7.582-9.086c-2.38-1.675-4.765-3.033-7.376-3.992
				c-0.186-0.068-0.424-0.044-0.627-0.006c-2.021,0.374-4.016,0.882-5.758,2.003c-2.605,1.677-4.681,3.797-4.986,7.089
				c-0.066,0.713-0.258,1.785,0.81,1.928C301.71,184.146,305.085,184.911,308.628,185.751z"/>
			<path style="fill:#BA3217;" d="M276.786,170.473c-4.687,0.959-8.891,2.894-12.595,5.899c-3.942,3.198-3.726,7.181-1.478,11.173
				c0.534,0.949,1.277,1.224,2.247,0.801c1.919-0.836,3.823-1.708,5.652-2.528C268.586,178.98,271.968,174.467,276.786,170.473z"/>
			<path style="fill:#BA3217;" d="M309.548,184.987c-0.14,0.698,0.362,1.26,1.464,1.611c2.402,0.764,4.799,1.532,7.267,2.056
				c1.63,0.346,3.242-0.557,3.71-2.128c0.695-2.329-0.374-4.214-1.706-5.937c-2.802-3.622-3.219-3.61-7.4-1.139
				C311.03,180.545,309.732,182.223,309.548,184.987z"/>
			<path style="fill:#701608;" d="M328.513,195.878c1.344,2.016,4.566,3.469,6.337,2.936c4.191-1.262,6.384-6.769,4.205-10.559
				c-0.204-0.355-0.348-0.839-0.903-0.678c-1.831,0.53-3.734,0.086-5.623,0.356C333.937,191.969,331.577,194.059,328.513,195.878z"
				/>
			<path style="fill:#BA3217;" d="M328.464,178.193c2.123,2.772,2.306,5.63,0.529,8.619c3.913-0.639,6.512-2.764,7.421-6.417
				c0.653-2.624-0.13-5.143-2.105-7.386C332.495,175.061,330.555,176.714,328.464,178.193z"/>
			<path style="fill:#BA3217;" d="M339.628,187.399c2.35,4.398,1.631,8.126-1.924,11.631c1.523-0.279,2.662-0.456,3.785-0.7
				c2.611-0.566,4.393-2.082,4.742-4.788c0.274-2.122-0.297-4.162-1.455-5.991c-0.298-0.47-0.776-0.717-1.355-0.646
				C342.233,187.051,341.047,187.213,339.628,187.399z"/>
			<path style="fill:#701608;" d="M337.902,168.541c-0.983,1.267-1.974,2.545-2.955,3.81c2.925,3.096,3.227,6.579,1.817,10.562
				c1.618-1.311,2.897-2.684,4.134-4.093c0.407-0.463,0.858-0.99,1.005-1.561C342.585,174.617,340.395,169.882,337.902,168.541z"/>
			<path style="fill:#BA3217;" d="M321.937,189.846c1.996,1.247,3.719,2.773,5.216,4.552c0.285,0.339,0.599,0.626,1.077,0.328
				c1.668-1.038,3.268-2.107,3.756-4.23c0.466-2.026-0.366-2.946-2.334-2.39c-1.395,0.394-2.873,0.632-4.214,0.291
				C323.861,187.995,322.815,188.281,321.937,189.846z"/>
			<path style="fill:#BA3217;" d="M338.479,167.732c3.051,1.764,3.796,4.773,4.491,7.996c1.426-2.229,2.064-4.491,2.095-6.873
				c0.018-1.401-0.238-2.842-1.093-4.046c-1.213-1.706-2.526-1.69-3.65,0.021C339.717,165.753,339.139,166.692,338.479,167.732z"/>
			<path style="fill:#701608;" d="M323.848,186.751c3.141,0.96,4.253,0.506,5.012-2.057c0.511-1.726,0.289-3.421-0.501-5.041
				c-0.323-0.663-0.773-1.029-1.493-0.589c-1.377,0.844-2.909,1.269-4.514,1.626C323.344,182.645,323.983,184.57,323.848,186.751z"
				/>
			<path style="fill:#701608;" d="M346.093,196.974c2.827-0.371,4.45-2.069,4.432-4.516c-0.018-2.455-2.128-4.818-4.615-5.168
				C347.753,192.511,347.776,193.424,346.093,196.974z"/>
		</g>
		<g>
			<path style="fill:#DB5A39;" d="M77.317,275.211c1.509-0.457,1.958-0.066,2.29,0.934c0.345,1.039,0.542,2.265,1.939,2.954
				c-1.347-2.928-2.036-5.882-2.422-8.867c-0.476-3.691-0.417-7.416,0.469-11.068c0.223-0.918,1.191-0.979,1.954-0.068
				c1.03,1.229,1.905,2.588,2.925,3.826c2.748,3.334,5.497,6.667,8.299,9.958c3.295,3.871,7.184,6.884,11.703,9.139
				c2.683,1.338,5.59,1.818,8.522,2.133c5.313,0.57,10.177-1.084,14.953-3.132c0.89-0.382,1.81-0.695,2.811-1.077
				c0.285,1.485-0.188,2.733-0.471,3.988c-1.143,5.058-2.567,10-5.552,14.363c-2.997,4.38-3.617,9.485-4.288,14.574
				c-1.259,9.543,1.11,18.18,6.312,26.17c1.488,2.286,3.469,4.094,5.511,6.158c-3.104,1.963-5.861,3.913-9.92,3.104
				c-3.408-0.679-6.758-1.341-10.019-2.58c-3.243-1.233-6.062-3.132-8.803-5.155c-3.044-2.247-5.711-4.936-8.333-7.658
				c-0.348-0.361-0.894-0.639-0.62-1.585c2.816,0.537,4.922,2.765,7.425,3.412C83.486,319.241,77.207,298.617,77.317,275.211z"/>
			<path style="fill:#DB5A39;" d="M285.813,455.397c0.926-4.1,1.731-8.105-0.971-11.827c-1.605,1.133-0.627,4.076-3.324,4.474
				c-0.04-0.451-0.144-0.773-0.083-1.06c1.229-5.786-0.83-10.573-4.389-14.977c-3.979-4.922-9.25-7.931-14.965-10.278
				c-0.848-0.348-1.157-0.733-1.189-1.556c-0.056-1.425-0.156-2.845,0.206-4.252c1.257-4.877,3.031-9.56,5.732-13.814
				c3.149-4.961,8.19-6.306,13.65-6.683c1.368-0.095,2.739-0.183,4.1-0.343c5.645-0.662,7.888-2.904,8.543-8.545
				c0.17-1.467,0.233-2.947,0.37-4.418c0.18-1.929,0.783-3.733,2.66-4.563c4.136-1.829,8.357-3.249,13.005-1.887
				c1.039,0.304,1.669,0.852,1.947,1.771c1.361,4.504,2.354,9.079,3.016,13.752c0.477,3.367,0.853,6.789,0.737,10.106
				c-0.121,3.483,0.03,6.994-0.397,10.499c-0.496,4.076-1.248,8.068-2.275,12.026c-1.252,4.825-3.771,9.007-6.53,13.088
				c-2.199,3.252-4.812,6.168-7.513,8.964c-2.349,2.432-4.836,4.776-7.539,6.854c-0.907,0.697-1.765,1.456-2.658,2.171
				C287.374,455.358,286.777,455.776,285.813,455.397z"/>
			<path style="fill:#DB5A39;" d="M122.156,222.511c-2.506-2.966-5.672-4.656-8.13-7.538c2.435-0.511,4.362,1.212,6.608,0.286
				c-1.336-1.135-3.229-0.912-4.156-2.475c1.322-0.516,2.349-0.012,3.363,0.282c3.012,0.874,6.102,1.288,9.21,1.359
				c4.416,0.1,8.84-0.04,13.245,0.36c5.626,0.511,11.208,1.298,16.602,3.075c1.17,0.385,2.443,0.457,3.74,1.306
				c-4.171,1.953-7.38,5.214-11.442,7.143c-8.838,4.197-15.545,10.745-20.273,19.16c-2.442,4.347-3.302,9.269-2.456,14.391
				c0.945,5.721,1.629,11.485,2.489,17.221c0.182,1.216-0.251,1.787-1.343,2.194c-4.216,1.57-8.366,3.215-12.991,3.41
				c-1.569,0.066-3.079-0.209-4.626-0.168c-1.2,0.031-1.886-1.21-2.786-1.879c-2.013-1.496-3.403-3.572-4.238-5.902
				c-1.718-4.795-2.769-9.697-3.03-14.858c-0.196-3.867-0.542-7.77-1.059-11.645c-0.521-3.903-0.571-7.866-1.678-11.689
				c-2.138-7.387-6.112-13.131-13.844-15.519c-0.93-0.287-1.889-0.484-2.849-0.726c-0.382-0.819,0.128-1.09,0.813-1.228
				c2.937-0.591,5.867-1.216,8.815-1.749c2.702-0.488,5.446-0.257,8.173-0.341c5.833-0.18,11.252,1.554,16.628,3.501
				C118.575,221.074,120.182,221.74,122.156,222.511z"/>
			<path style="fill:#DB5A39;" d="M90.734,361.038c2.771,0.739,4.136,3.403,6.773,4.349c-4.359-7.682-6.287-15.912-6.241-24.588
				c0.519-0.38,0.905-0.248,1.153,0.142c1.348,2.119,3.175,3.798,4.931,5.56c3.541,3.552,7.895,5.364,12.694,6.443
				c3.248,0.73,6.277-0.294,9.376-0.795c4.439-0.718,8.162-3.191,12.093-5.127c1.26-0.621,1.822-0.47,2.346,0.86
				c1.688,4.28,1.329,8.596,0.383,12.926c-1.267,5.798-1.315,11.693-0.567,17.484c0.708,5.476,4.154,9.709,8.113,13.419
				c2.857,2.677,6.08,4.901,9.211,7.234c1.995,1.487,4.34,2.148,6.77,2.445c0.967,0.118,1.644,0.473,2.14,1.291
				c0.785,1.292,0.644,1.894-0.809,2.503c-3.737,1.568-7.571,2.601-11.671,2.919c-8.549,0.663-16.76-0.772-24.757-3.557
				c-6.203-2.16-11.827-5.386-16.252-10.375c-2.931-3.304-5.323-7.001-7.53-10.819c-2.179-3.77-4.019-7.698-5.394-11.829
				c-1.057-3.174-2.151-6.342-2.833-9.627C90.623,361.704,90.693,361.491,90.734,361.038z"/>
			<path style="fill:#DB5A39;" d="M133.797,189.995c1.276,3.036,2.133,6.285,4.706,8.806c-0.241-2.002-0.463-3.877-0.715-5.712
				c-0.559-4.065-0.096-8.002,0.888-11.9c1.94-7.682,5.67-14.481,10.549-20.673c0.681-0.864,1.558-1.573,2.324-2.373
				c0.519-0.542,1.104-0.451,1.73-0.294c0.659,2.139-1.342,3.788-0.949,5.93c3.41-8.811,10.398-13.743,18.553-17.551
				c-1.93,12.262,1.321,23.045,8.1,33.181c-0.847,0.939-1.98,2.174-3.09,3.429c-3.641,4.117-4.902,8.98-4.541,14.372
				c0.194,2.889,0.678,5.767,0.322,8.683c-0.535,4.385-3.459,7.33-6.15,10.448c-1.162,1.346-2.209,1.663-4.019,1.039
				c-5.277-1.819-10.683-3.17-16.299-3.598c-2.492-0.19-4.964-0.661-7.477-0.586c-0.749,0.022-1.135-0.381-1.453-0.972
				c-1.84-3.422-2.631-7.124-3.206-10.937C132.499,197.497,133.014,193.821,133.797,189.995z"/>
			<path style="fill:#DB5A39;" d="M394.418,299.83c3.294,1.579,6.813,1.869,10.218,2.507c0.013,0.361,0.151,0.67-0.305,0.824
				c-2.308,0.779-4.637,1.447-7.088,1.599c-5.21,0.325-10.393-0.287-15.554-0.722c-5.532-0.467-10.748,0.069-15.827,2.657
				c-0.035-1.838,0.735-3.334,1.314-4.881c0.887-2.371,1.986-4.738,0.796-7.318c-1.292-2.803-2.864-5.492-5.278-7.429
				c-4.741-3.804-6.591-8.882-7.449-14.678c-1.183-7.996,0.813-15.032,5.493-21.473c0.633-0.872,1.144-1.094,2.19-0.691
				c7.768,2.992,15.154,6.605,21.616,11.995c4.951,4.129,8.677,9.249,12.568,14.287c4.738,6.134,10.48,11.187,17.645,14.335
				c2.229,0.979,4.712,1.487,7.239,0.939c0.298-0.065,0.622-0.009,0.894-0.009c0.333,0.63,0.066,0.942-0.361,1.245
				c-5.377,3.823-11.241,6.216-17.909,6.737c-3.053,0.238-6.016,0.274-9-0.362C395.307,299.325,394.893,299.233,394.418,299.83z"/>
			<path style="fill:#DB5A39;" d="M386.228,367.32c-0.619,2.439-14.103,4.582-19.71,3.208c2.214,1.599,5.083,1.61,7.503,2.81
				c-1.836,0.926-3.72,1.161-5.566,1.411c-6.091,0.826-11.994-0.266-17.734-2.213c-3.76-1.276-7.533-2.482-11.383-3.44
				c-0.455-0.113-0.769-0.328-1.032-0.642c-1.373-1.642-3.081-2.876-4.865-4.014c-1.644-1.049-2.81-2.539-3.893-4.107
				c-1.049-1.519-2.021-3.091-3.096-4.591c-4.861-6.787-2.393-16.456,2.394-21.252c0.675-0.676,1.366-1.357,2.243-1.734
				c3.203-1.378,6.247-3.053,9.248-4.816c0.271-0.159,0.574-0.264,0.868-0.382c2.498-1.008,2.541-0.903,4.098,1.271
				c2.804,3.918,5.013,8.209,7.714,12.177c4.532,6.66,8.906,13.481,15.056,18.853c4.382,3.827,9.332,6.463,15.239,7.011
				C384.29,366.959,385.257,367.167,386.228,367.32z"/>
			<path style="fill:#DB5A39;" d="M160.501,401.704c5.063,0.121,9.829-0.836,14.607-0.204c5.334,0.706,9.111,3.558,11.255,8.567
				c2.25,5.257,5.776,9.665,9.489,13.941c4.431,5.102,9.953,6.359,16.336,4.757c2.293-0.576,4.607-1.074,7.028-1.087
				c-4.403,15.256-24.956,32.18-44.336,30.782c2.844-2.134,5.66-4.308,7.528-7.374c1.823-2.994,3.671-5.993,4.389-9.945
				c-2.536,2.823-4.288,5.884-7.788,6.951c-0.499-0.846,0.014-1.146,0.348-1.523c2.673-3.02,3.887-6.672,3.725-10.575
				c-0.09-2.187-1.025-4.396-1.861-6.482c-1.798-4.487-4.998-8.085-7.918-11.846C169.198,412.377,164.275,407.745,160.501,401.704z"
				/>
			<path style="fill:#DB5A39;" d="M269.31,87.917c-1.955,0.775-3.623,1.299-5.471,0.865c-2.048-0.481-4.132-0.828-6.037-1.792
				c-1.114-0.564-2.271-0.369-3.397-0.072c-1.882,0.496-3.733,1.12-5.625,1.568c-2.703,0.641-3.321-0.321-3.039-3.079
				c0.375-3.677,1.085-7.256,2.113-10.775c1.017-3.482,2.341-6.858,4.804-9.621c1.012-1.136,2.601-1.069,3.699,0.021
				c1.936,1.921,2.806,4.448,3.802,6.88c2.018,4.929,4.105,9.812,7.388,14.07C268.017,86.594,268.587,87.13,269.31,87.917z"/>
			<path style="fill:#DB5A39;" d="M336.493,210.892c-2.582,0.439-4.496-1.253-6.922-1.837c0.617,1.969,1.267,3.779,1.626,5.676
				c0.675,3.57,0.11,7.045-0.508,10.541c-0.528,2.984-1.762,5.695-3.11,8.359c-0.28,0.554-0.599,1.46-1.623,1.017
				c-1.489-6.984-2.144-14.069-2.469-21.231c-0.341-7.538-2.245-14.798-5.394-21.694c-0.209-0.458-0.682-0.911-0.179-1.414
				c0.448-0.448,0.916-0.186,1.432,0.024c2.564,1.041,4.254,3.117,6.105,5.014c3.069,3.147,4.444,7.305,6.609,10.991
				c0.892,1.518,2.137,2.753,3.829,3.297C336.665,209.884,336.564,210.253,336.493,210.892z"/>
			<path style="fill:#DB5A39;" d="M311.216,85.441c-2.292,0.714-4.315,0.369-6.062-1.044c-1.307-1.058-2.65-1.445-4.25-0.94
				c-0.149,0.047-0.312,0.063-0.469,0.069c-1.128,0.041-2.292-0.075-3.215-0.664c-1.35-0.86-0.153-1.968,0.076-2.873
				c1.206-4.757,3.101-9.222,6.316-12.998c1.217-1.429,2.866-1.063,3.748,0.623c1.133,2.165,1.255,4.573,1.597,6.906
				C309.489,78.153,310.037,81.77,311.216,85.441z"/>
		</g>
		<g>
			<path style="fill:#6F2C2C;" d="M425.926,290.679c-4.78,6.764-11.497,9.6-19.264,10.892c0.656,1.185-0.178,1.702-0.969,2.207
				c-2.551,1.628-5.417,2.288-8.374,2.547c-4.328,0.379-8.624-0.264-12.936-0.477c-5.022-0.248-10.107-0.845-15.014,1.096
				c-3.935,1.558-7.083,4.21-9.926,7.173c-4.249,4.429-8.752,8.387-14.957,10.173c1.143,2.203,2.441,4.084,3.699,5.995
				c3.94,5.983,7.58,12.16,11.833,17.941c4.606,6.26,9.649,12.003,16.772,15.546c3.406,1.694,6.932,2.719,10.775,2.483
				c0.71-0.044,1.452-0.2,2.164,0.117c-1.376,2.456-7.008,5.038-12.416,5.653c0.569,1.197-0.245,1.679-1.135,2.093
				c-4.849,2.258-9.932,2.893-15.244,2.437c-6.173-0.531-11.88-2.745-17.618-4.758c-5.832-2.047-11.69-1.899-17.62-1.052
				c-4.421,0.632-8.812,1.455-13.013,3.057c-0.388,0.148-0.775,0.298-1.274,0.491c1,2.983,2.094,5.875,2.787,8.888
				c1.988,8.639,2.453,17.37,1.868,26.208c-0.346,5.231-1.316,10.331-2.774,15.319c-1.908,6.526-5.672,12.072-9.941,17.279
				c-4.442,5.416-9.559,10.126-15.193,14.276c-0.888,0.654-1.842,1.221-2.782,1.802c-0.415,0.257-0.9,0.443-1.293-0.011
				c-0.356-0.41,0.067-0.736,0.18-1.12c1.084-3.681,1.91-7.388,0.617-11.562c-0.915,2.353-2.061,4.148-3.574,5.695
				c-0.479,0.489-1.062,1.113-1.768,0.684c-0.841-0.511-0.16-1.217,0.066-1.804c2.419-6.279,0.799-11.83-3.343-16.707
				c-5.25-6.182-12.366-9.339-19.963-11.543c-5.051-1.466-10.211-2.483-15.355-3.565c-5.842-1.228-11.516-2.939-16.484-6.359
				c-1.122,15.062-7.288,27.316-19.011,36.789c-5.298,4.281-10.76,8.101-17.538,9.658c-3.952,0.908-7.891,1.839-11.977,1.769
				c-0.994-0.017-1.985-0.205-2.978-0.308c-0.52-0.054-0.954-0.286-1.013-0.817c-0.056-0.502,0.405-0.654,0.8-0.842
				c4.84-2.299,8.045-6.187,10.478-10.818c0.113-0.214,0.367-0.412,0.125-0.759c-1.491,1.246-3.075,2.335-4.905,3.029
				c-0.855,0.324-1.719,0.472-2.626,0.406c-0.458-0.033-1.016,0.102-1.185-0.517c-0.156-0.573,0.248-0.836,0.688-1.085
				c2.67-1.505,4.263-3.928,5.294-6.68c1.453-3.878,1.073-7.776-0.583-11.512c-2.19-4.94-5.888-8.843-9.2-13.004
				c-3.121-3.922-6.735-7.43-9.712-11.61c-2.875,1.352-5.74,2.649-8.773,3.473c-4.803,1.306-9.688,1.286-14.589,0.682
				c-6.614-0.814-13.021-2.38-19.097-5.192c-8.21-3.801-14.368-9.791-19.113-17.426c-4.798-7.718-8.438-15.878-10.287-24.8
				c-0.053-0.257-0.174-0.516-0.163-0.769c0.037-0.851-0.432-1.915,0.622-2.415c0.964-0.458,1.529,0.416,2.153,0.951
				c0.906,0.777,1.801,1.567,2.802,2.295c-1.273-2.597-2.498-5.194-3.181-8.008c-1.259-5.189-2.026-10.43-1.766-15.788
				c0.015-0.316,0.023-0.64,0.101-0.943c0.129-0.495,0.168-1.087,0.867-1.165c0.674-0.075,0.916,0.426,1.144,0.9
				c1.807,3.745,4.607,6.664,7.778,9.249c4.32,3.521,9.234,5.451,14.874,5.108c2.714-0.165,5.43-0.468,8.204-1.795
				c-2.321-0.411-4.404-0.642-6.412-1.159c-7.597-1.959-13.651-6.458-19.081-11.902c-2.688-2.695-5.175-5.563-6.869-9.027
				c-0.238-0.486-0.524-0.958-0.116-1.457c0.499-0.609,0.86,0.264,1.492,0.197c-2.315-2.884-4.472-5.725-6.213-8.85
				c-4.292-7.706-7.109-15.904-8.529-24.626c-0.975-5.988-1.257-11.921,0.062-17.875c0.057-0.255,0.05-0.583,0.207-0.748
				c1.43-1.5,0.6-3.187,0.366-4.78c-0.481-3.273-0.416-6.505,0.374-9.718c0.113-0.459,0.224-0.925,0.405-1.36
				c0.772-1.859,2.108-2.143,3.534-0.716c1.76,1.761,3.021,3.93,4.639,5.808c4.542,5.273,8.812,10.822,14.801,14.635
				c2.086,1.328,4.236,2.496,6.9,3.137c-4.349-4.709-6.758-10.123-7.59-16.148c-0.626-4.532-0.693-9.138-1.153-13.697
				c-0.68-6.731-0.734-13.573-3.82-19.873c-2.762-5.639-9.468-9.848-15.741-9.607c-1.986,0.076-3.835,0.812-5.873,1.451
				c0.456-1.345,1.339-2.052,2.339-2.482c5.501-2.367,11.007-4.655,16.991-5.681c6.799-1.166,13.307-0.29,19.737,1.909
				c0.431,0.147,0.837,0.481,1.583,0.281c-1.061-0.815-2.019-1.533-2.954-2.28c-0.411-0.328-0.789-0.701-1.155-1.079
				c-0.496-0.513-0.929-1.107-0.483-1.824c0.418-0.672,1.09-0.471,1.713-0.295c0.179,0.051,0.364,0.079,0.689,0.147
				c-0.88-1.172-2.648-1.526-2.434-3.619c3.968,1.604,7.864,2.928,11.949,3.553c4.123,0.631,8.276,0.392,12.595,0.553
				c-3.714-6.862-3.538-13.928-2.047-21.057c0.556-2.659,1.24-5.359,3.14-7.547c-0.238,1.864-0.199,3.686,0.091,5.514
				c0.306-3.296,0.448-6.607,1.407-9.8c2.385-7.939,6.079-15.139,11.91-21.137c0.891-0.916,1.881-1.692,3.044-2.229
				c0.899-0.415,1.804-0.761,2.396,0.648c2.775-3.173,5.719-5.869,9.054-8.118c2.58-1.74,5.309-3.208,8.171-4.427
				c0.491-0.209,1.032-0.366,1.498,0.036c0.411,0.355,0.36,0.821,0.218,1.313c-2.224,7.699-0.973,15.194,1.219,22.674
				c1.078,3.679,2.943,6.763,5.565,9.558c5.191,5.534,11.062,10.224,17.084,14.802c12.078,9.182,22.365,20.115,30.459,32.969
				c4.746,7.538,7.281,15.965,8.461,24.766c0.305,2.276,0.267,4.627-0.141,7.199c0.746-0.931,1.346-1.693,1.96-2.445
				c2.043-2.502,4.368-4.685,6.884-6.734c4.983-4.056,7.453-9.481,8.22-15.838c0.973-8.075,0.864-16.21,1.601-24.294
				c0.637-6.992,2.922-13.33,7.643-18.801c-2.408-1.615-3.252-4.047-3.553-6.735c-0.317-2.831,0.806-5.134,2.888-7.163
				c-2.646-2.074-5.589-3.294-8.553-4.488c-5.083-2.049-10.292-3.469-15.828-2.834c-1.794,0.205-2.884-1.143-4.401-1.522
				c-0.747-0.187-0.441-1.135-0.158-1.794c0.809-1.891,2.251-3.28,3.843-4.795c-0.66-0.123-1.194-0.179-1.7-0.328
				c-0.658-0.194-1.357-0.421-1.437-1.262c-0.071-0.745,0.457-1.144,1.019-1.463c0.686-0.389,1.384-0.761,2.098-1.097
				c2.068-0.971,3.838-2.35,5.784-4.068c-2.506-0.15-4.427-1.184-6.384-2.107c-0.516-0.244-0.983-0.605-1.443-0.951
				c-0.417-0.315-0.551-0.774-0.405-1.274c0.171-0.585,0.669-0.599,1.156-0.582c5.549,0.191,9.496-2.736,12.705-6.799
				c1.997-2.529,2.492-5.762,3.165-8.83c0.572-2.609,0.844-5.283,1.287-7.922c0.203-1.206-0.264-2.137-0.997-3.02
				c-1.816-2.19-3.993-4.073-5.51-6.519c-1.566-2.527-2.923-5.126-3.049-8.183c-0.019-0.472-0.008-0.955,0.07-1.419
				c0.246-1.474,1.341-1.872,2.497-0.916c0.363,0.301,0.687,0.65,1.302,1.238c-0.746-2.527-1.569-4.681-1.929-6.962
				c-1.22-7.719-0.742-15.298,1.532-22.794c0.941-3.102,2.203-6.019,3.903-8.759c0.499-0.805,1.024-1.601,1.787-2.2
				c1.579-1.239,3.086-1.201,4.521,0.172c1.82,1.74,3.099,3.871,4.104,6.139c3.809,8.603,9.217,16.048,15.92,22.626
				c2.63,2.581,5.227,5.225,7.441,8.198c0.2,0.268,0.373,0.493,0.751,0.454c2.957-0.302,5.842,0.291,8.768,0.786
				c0.358-1.489-0.247-2.867-0.208-4.284c0.146-5.331,0.903-10.562,2.118-15.757c1.239-5.299,3.551-10.085,6.434-14.633
				c0.853-1.346,1.89-2.77,3.671-2.586c1.911,0.198,2.969,1.691,3.589,3.407c1.203,3.33,1.63,6.844,2.323,10.293
				c1.297,6.451,3.64,12.559,6.681,18.324c4.182,7.927,6.728,16.344,8.821,24.986c1.195,4.936,2.224,9.965,4.968,14.407
				c2.443,3.954,5.666,7.038,9.69,9.325c0.713,0.405,1.557,0.725,1.461,1.824c-0.096,1.092-0.93,1.438-1.735,1.833
				c-1.189,0.584-2.477,0.394-3.983,0.445c1.251,1.276,2.716,1.796,4.074,2.478c0.547,0.275,1.345,0.332,1.278,1.166
				c-0.06,0.753-0.75,0.945-1.367,1.115c-0.451,0.124-0.913,0.21-1.37,0.315c-0.354,0.082-0.902,0.078-0.957,0.433
				c-0.369,2.423-2.445,3.006-4.174,3.205c-5.3,0.609-8.807,3.8-11.847,7.672c-1.982,2.524-3.501,5.374-4.604,8.419
				c-0.297,0.82-0.213,1.36,0.531,1.998c2.908,2.495,2.935,2.544,6.356,0.727c5.191-2.756,8.749-7.207,12.192-11.773
				c0.412-0.547,0.821-1.101,1.179-1.684c0.817-1.331,1.768-2.364,3.547-2.066c1.771,0.296,3.047,1.293,3.65,2.908
				c1.126,3.013,1.138,6.078-0.123,9.083c-1.998,4.761-5.648,8.058-9.758,10.939c-0.424,0.297-0.86,0.577-1.227,1.153
				c1.858-0.257,3.715-0.53,5.576-0.768c1.565-0.2,3.123-0.417,4.717-0.231c3.65,0.426,6.561,2.788,7.069,6.384
				c0.469,3.324-0.817,5.644-4.719,7.008c-6.445,2.254-6.899,2.291-16.312,1.61c1.856,3.835,2.285,8.626,7.775,9.268
				c-0.088,2.421-2.353,2.889-7.271,1.449c0.254,0.719,0.465,1.339,0.692,1.953c1.567,4.241,0.676,8.393-0.473,12.527
				c-1.009,3.632-2.476,7.046-5.057,9.866c-0.351,0.384-0.198,0.694-0.132,0.993c0.702,3.163,1.44,6.317,2.194,9.586
				c4.066-0.91,8.011-1.38,12.026-1.36c9.144,0.045,17.839,2.099,26.218,5.641c5.991,2.532,11.748,5.502,16.88,9.541
				c5.054,3.977,9.266,8.735,13.031,13.953c4.725,6.548,10.654,11.82,17.839,15.583c2.981,1.561,6.159,2.058,9.484,1.273
				c0.203-0.048,0.421-0.062,0.628-0.046C425.249,290.49,425.447,290.564,425.926,290.679z M284.02,104.967
				c0.137-1.499-0.648-2.614-1.545-3.673c-2.326-2.745-4.838-5.301-7.664-7.541c-2.57-2.038-4.941-4.284-7.054-6.803
				c-3.966-4.726-6.195-10.37-8.49-15.979c-0.781-1.909-1.628-3.78-2.961-5.366c-1.245-1.482-2.415-1.465-3.652,0.035
				c-0.564,0.685-1.012,1.475-1.452,2.251c-3.444,6.088-4.809,12.761-5.234,19.63c-0.456,7.376,0.988,14.437,4.218,21.107
				c0.154,0.318,0.219,0.58-0.109,0.976c-2.409-0.974-3.555-3.492-5.658-5.059c-0.09,0.816-0.039,1.373,0.077,1.955
				c0.75,3.777,3.028,6.667,5.442,9.476c1.62,1.885,3.195,3.786,4.011,6.192c0.159,0.467,0.417,1.118,0.05,1.328
				c-1.109,0.636-0.757,1.629-0.765,2.5c-0.029,2.908-0.563,5.742-1.037,8.596c-0.806,4.858-3.458,8.362-7.534,10.952
				c-2.604,1.654-5.376,2.729-8.542,2.853c2.57,1.316,5.047,2.745,8.312,2.807c-2.061,4.087-5.812,5.606-9.318,7.441
				c2.073,0.787,3.691-0.546,5.67-0.622c-1.744,2.886-5.286,4.255-6.466,7.57c0.789,0.348,1.229-0.456,1.874-0.565
				c0.408-0.069,0.876-0.202,1.109,0.296c0.186,0.396-0.059,0.682-0.348,0.958c-0.184,0.175-0.629,0.168-0.485,0.69
				c4.643-0.217,9.257-0.111,13.696,1.575c4.394,1.669,8.618,3.643,12.136,6.319c18.296-11.166,36.378-10.096,54.641-0.119
				c-0.075,0.066,0.032,0.011,0.077-0.075c0.095-0.184,0.158-0.383,0.232-0.578c1.951-5.159,4.692-9.786,9.1-13.245
				c1.953-1.532,4.017-2.838,6.59-3.182c1.66-0.222,3.399-0.434,4.693-1.711c-0.645-1.239-2.352-0.808-3.011-2.334
				c1.933-0.049,3.722,0.789,5.646,0.167c-0.354-0.211-0.522-0.338-0.709-0.418c-2.42-1.035-4.405-2.668-6.205-4.543
				c-0.316-0.329-0.721-0.75-0.405-1.249c0.373-0.587,0.847-0.174,1.24,0.037c1.221,0.656,2.557,1.003,3.894,1.169
				c1.534,0.19,3.089,0.06,4.23-1.126c-0.169-0.578-0.473-0.624-0.782-0.734c-5.491-1.952-9.466-5.664-12.068-10.794
				c-2.668-5.26-3.933-11-4.899-16.749c-1.249-7.434-3.347-14.477-7.437-20.884c-4.619-7.237-7.759-15.028-8.567-23.672
				c-0.199-2.135-0.413-4.308-1.246-6.331c-0.967-2.348-2.329-2.573-3.953-0.682c-0.171,0.199-0.339,0.406-0.472,0.631
				c-1.525,2.578-3.032,5.166-4.067,7.992c-2.223,6.065-3.235,12.385-3.728,18.784c-0.173,2.243-0.236,4.529,0.138,6.791
				c0.131,0.791,0.451,1.105,1.25,1.32c3.613,0.972,7.067,2.352,10.213,4.419c0.442,0.29,1.051,0.442,1.173,1.41
				c-7.175-4.085-14.734-6.008-22.766-5.931c-0.343,0.719,0.105,1.742-1.045,1.805L284.02,104.967z M90.991,361.15
				c1.789,9.494,6.629,20.309,12.632,28.75c3.982,5.599,9.088,9.763,15.28,12.672c5.681,2.668,11.707,4.038,17.886,4.841
				c5.097,0.663,10.201,0.821,15.245-0.353c2.781-0.648,5.546-1.427,8.073-2.991c-0.402-0.629-0.684-1.136-1.027-1.598
				c-8.482-11.452-10.914-24.28-8.844-38.193c0.953-6.406,2.891-12.502,5.419-18.418c3.424-8.011,7.693-15.565,14.076-21.589
				c14.079-13.287,31.186-18.264,50.198-17.538c3.145,0.12,6.271,0.715,9.185,2.056c0.544,0.251,1.225,0.391,1.156,1.276
				c-0.613,0.082-1.168,0.074-1.754-0.043c-2.06-0.409-4.12-0.974-6.202-1.092c-7.236-0.41-14.461-0.086-21.533,1.57
				c-17.612,4.124-31.489,13.365-39.971,29.767c-4.753,9.19-8.024,18.774-8.814,29.238c-0.778,10.311,1.291,19.703,6.707,28.508
				c3.589,5.834,8.003,10.972,12.326,16.23c4.683,5.697,9.888,11.052,11.749,18.678c0.634,2.599,0.671,4.909,0.199,7.378
				c-0.52,2.718-1.829,5.064-3.584,7.197c2.623-1.27,4.439-3.36,6.11-5.604c0.336-0.452,0.575-1.158,1.309-0.797
				c0.738,0.363,0.329,1.025,0.167,1.539c-1.112,3.543-2.798,6.799-4.968,9.809c-1.696,2.353-3.897,4.174-6.48,5.884
				c1.542,0.212,2.771-0.01,4.017-0.181c7.821-1.072,15.145-3.284,21.522-8.251c5.578-4.345,10.879-8.9,14.467-15.091
				c3.797-6.551,5.967-13.674,6.865-21.167c0.158-1.318,0.583-2.801-0.991-3.975c-13.293-9.918-19.468-23.9-21.975-39.722
				c-1.253-7.91,0.057-15.753,2.678-23.323c4.85-14.008,14.634-23.628,27.356-30.614c0.29-0.159,0.58-0.236,0.914,0.095
				c-0.617,1.286-1.793,2.017-2.932,2.733c-4.449,2.797-8.418,6.165-12.073,9.923c-11.536,11.862-16.062,26.176-14,42.388
				c1.068,8.392,4.271,16.278,8.89,23.443c6.496,10.077,15.299,17.219,27.045,20.295c5.282,1.383,10.663,2.383,15.979,3.642
				c7.292,1.727,14.219,4.329,20.103,9.136c4.307,3.519,7.528,7.75,8.564,13.418c0.417,2.285,0.387,4.5-0.152,6.757
				c1.071-0.945,1.543-2.13,1.896-3.408c0.136-0.493,0.137-1.272,0.961-1.241c0.664,0.026,0.992,0.55,1.215,1.1
				c0.919,2.264,1.544,4.536,1.051,7.059c-0.236,1.205-0.62,2.477-0.37,3.941c4.148-3.09,7.789-6.435,11.342-9.898
				c10.146-9.89,15.818-21.828,16.419-36.017c0.308-7.266,0.347-14.55-1.18-21.732c-2.965-13.947-8.378-26.572-18.748-36.835
				c-10.958-10.845-23.722-18.421-38.483-22.735c-0.394-0.115-1.012-0.032-1.19-0.877c1.568-0.604,3.068,0.096,4.475,0.466
				c24.642,6.482,41.604,21.772,51.354,45.248c4.856-2.06,9.765-3.137,14.733-3.993c5.331-0.919,10.658-1.389,15.963,0.168
				c3.229,0.948,6.435,1.964,9.625,3.045c7.34,2.488,14.79,3.422,22.642,1.192c-2.774-0.842-5.622-0.916-7.724-3.084
				c6.898,1.37,13.336-0.109,19.642-2.534c-4.083-0.515-8.002-1.321-11.654-3.284c-6.073-3.265-10.466-8.303-14.535-13.65
				c-5.305-6.97-9.832-14.476-14.371-21.946c-4.478-7.369-10.061-13.682-16.759-18.999c-4.89-3.881-10.567-6.523-16.131-9.291
				c-7.194-3.578-14.789-5.789-22.842-6.208c-8.476-0.442-16.808,0.617-25.06,2.522c-8.998,2.077-17.173,5.695-23.794,12.336
				c-0.28,0.281-0.55,0.671-1.057,0.491c-0.301-1.088-0.308-1.093,0.364-1.951c2.662-3.399,6.168-5.744,9.927-7.702
				c9.764-5.086,20.369-6.833,31.193-7.594c1.159-0.082,2.042-0.237,2.86-1.212c3.13-3.731,5.792-7.783,8.417-11.864
				c4.779-7.43,8.571-15.562,15.358-21.561c0.416-0.368,0.463-0.773,0.318-1.277c-2.671-9.234-4.758-18.635-7.913-27.731
				c-0.259-0.747-0.458-1.447,0.072-2.674c5.366,9.449,7.351,19.561,9.684,29.661c2.722-2.127,5.677-3.737,8.603-5.398
				c2.973-1.688,6.126-2.964,9.354-4.052c-3.762-11.027-6.987-30.67-5.255-33.254c1.576,3.493,1.573,7.14,2.259,10.614
				c0.698,3.534,1.203,7.107,1.793,10.662c4.76-8.19,6.793-16.576,2.535-25.687c2.687,0.003,4.66,2.077,7.193,1.744
				c-3.046-1.275-4.636-3.76-5.811-6.596c-1.944-4.688-5.02-8.515-8.875-11.756c-0.891-0.749-1.819-1.471-3.019-1.606
				c-1.737-0.194-3.417-0.628-5.051-1.206c-8.194-2.895-16.598-4.178-25.297-3.636c-4.576,0.285-9.107,0.839-13.645,1.455
				c-3.607,0.489-6.696,2.477-10.208,3.182c-0.437,0.088-0.62,0.532-0.839,0.897c-1.956,3.266-3.578,6.692-4.628,10.349
				c-1.228,4.278-1.356,8.712-1.706,13.121c-0.487,6.136-0.933,12.271-1.696,18.392c-0.918,7.368-3.921,13.345-9.835,17.841
				c-3.774,2.869-6.529,6.55-8.588,10.784c-2.908,5.979-4.421,12.333-5.202,18.906c-0.944,7.949-0.533,15.738,2.386,23.28
				c0.129,0.334,0.368,0.645-0.016,0.977c-0.594-0.147-0.804-0.64-1.024-1.114c-1.018-2.192-1.955-4.422-2.528-6.773
				c-1.438-5.899-1.601-11.874-0.967-17.892c0.576-5.467,1.526-10.829,3.999-15.817c0.708-1.428,1.01-2.981,1.074-4.57
				c0.434-10.845-2.458-20.92-7.745-30.222c-6.35-11.172-15.227-20.313-24.689-28.882c-4.541-4.113-9.748-7.399-14.426-11.349
				c-4.082-3.447-8.299-6.992-10.985-11.519c-5.425-9.144-8.076-19.116-5.993-29.921c-0.248-0.151-0.442,0.068-0.667,0.173
				c-5.508,2.553-10.012,6.372-13.893,10.984c-1.2,1.426-2.107,3.007-2.653,4.791c-0.214,0.698-0.106,1.914-1.221,1.559
				c-0.916-0.292-0.459-1.395-0.303-2.117c0.177-0.814,0.529-1.596,0.854-2.372c0.251-0.598,0.406-1.186,0.182-2.041
				c-4.214,3.351-6.917,7.719-9.359,12.266c-2.424,4.515-4.286,9.24-5.22,14.322c-0.936,5.092-0.053,10.144,0.248,15.24
				c-2.453-2.519-3.987-5.418-4.751-8.957c-0.583,3.629-1.033,6.996-0.477,10.441c0.605,3.753,1.279,7.461,3.194,10.822
				c0.396,0.695,0.844,1.047,1.729,1.061c7.035,0.112,13.924,1.206,20.68,3.184c14.656,4.292,27.613,11.551,38.196,22.606
				c11.95,12.483,19.232,27.616,23.964,44.079c0.06,0.21,0.116,0.529-0.328,0.643c-0.76-0.654-1.216-1.546-1.507-2.483
				c-1.943-6.251-4.812-12.1-7.659-17.967c-8.799-18.133-22.128-31.673-40.497-40.148c-11.912-5.496-24.466-7.955-37.539-8.032
				c-2.53-0.015-5.057,0.054-7.593-0.182c-3.125-0.29-6.136-1.049-9.402-1.951c1.537,1.24,3.344,1.345,4.825,2.524
				c-2.312,1.806-4.466,0.006-6.78,0.054c2.674,2.403,5.513,4.429,7.984,6.991c-1.325,1.008-2.306,0.112-3.217-0.279
				c-9.142-3.927-18.542-5.887-28.494-3.992c-1.341,0.255-2.706,0.41-4.027,0.739c-1.316,0.328-2.707,0.446-3.97,1.07
				c0.262,0.453,0.613,0.353,0.908,0.423c6.203,1.472,10.898,4.877,13.642,10.733c1.939,4.137,3.06,8.469,3.378,13.056
				c0.36,5.195,1.162,10.363,1.425,15.561c0.236,4.677,1.063,9.174,2.56,13.59c1.152,3.396,2.98,6.253,5.992,8.291
				c0.751,0.508,1.484,0.84,2.442,0.901c4.35,0.278,8.498-0.547,12.524-2.099c7.4-2.854,14.71-5.906,22.411-7.974
				c7.997-2.147,15.96-3.483,24.298-2.712c7.975,0.738,15.685,2.367,23.186,5.122c12.618,4.633,23.543,11.547,31.139,22.976
				c0.415,0.624,1.098,1.148,0.918,2.121c-1.025,0.028-1.326-0.809-1.824-1.353c-5.876-6.409-12.158-12.364-19.886-16.501
				c-13.49-7.222-27.681-11.661-43.243-10.378c-4.977,0.41-9.948,0.773-14.767,2.22c-6.915,2.077-13.482,5.029-20.12,7.82
				c-4.693,1.973-9.496,3.374-14.77,3.01c-7.556-0.521-13.572-3.926-18.71-9.151c-4.334-4.407-8.116-9.297-11.884-14.19
				c-0.658-0.855-1.218-1.827-2.281-2.449c-0.739,1.642-0.929,3.308-1.053,4.969c-0.368,4.915,0.58,9.631,2.298,14.213
				c0.189,0.505,0.517,1.072-0.07,1.392c-0.676,0.368-1.063-0.211-1.317-0.757c-0.57-1.225-1.108-2.464-1.66-3.697
				c-1.695,11.608,0.845,22.563,4.888,33.271c4.105,10.871,10.641,20,19.966,27.169c-3.117-0.665-5.748-2.166-8.391-3.73
				c-0.023,0.171-0.05,0.234-0.031,0.255c7.135,7.919,15.245,14.277,26.168,15.923c2.19,0.33,4.475,0.797,6.654-0.415
				c6.95-3.867,13.337-8.486,19.105-13.97c3.987-3.79,7.469-8.048,11.277-12.001c7.774-8.069,16.281-15.204,26.478-20.049
				c5.102-2.424,10.431-4.157,16.155-4.555c5.545-0.385,10.893,0.573,16.237,1.826c4.615,1.082,8.863,2.967,12.793,5.594
				c0.491,0.328,1.142,0.627,0.706,1.51c-1.296-0.264-2.377-0.92-3.489-1.472c-6.805-3.378-14.087-4.966-21.59-5.448
				c-7.471-0.48-14.361,1.878-20.902,5.22c-9.852,5.035-18.105,12.163-25.568,20.226c-6.531,7.056-12.971,14.177-21.153,19.443
				c-5.592,3.599-11.199,7.16-17.756,8.735c-3.005,0.722-6.067,1.499-9.201,1.063c-7.452-1.038-13.238-4.884-17.758-10.783
				c-0.423-0.552-0.843-1.106-1.465-1.922c-0.173,3.794,0.508,7.091,1.059,10.402c0.763,4.582,2.626,8.741,4.844,12.773
				c0.289,0.525,0.751,1.198,0.137,1.736c-0.693,0.607-1.273-0.005-1.792-0.434C94.298,363.941,92.734,362.614,90.991,361.15z
				 M422.405,292.428c-5.883-0.219-8.195-0.842-12.124-3.331c-5.678-3.596-10.534-8.099-14.521-13.507
				c-2.098-2.845-4.143-5.716-6.568-8.308c-8.661-9.259-19.556-14.697-31.485-18.247c-8.638-2.57-17.505-3.514-26.362-1.394
				c-14.108,3.377-24.715,11.563-31.957,24.151c-4.1,7.127-8.271,14.22-14.049,20.188c-0.036,0.038,0.04,0.184,0.083,0.356
				c2.777-0.004,5.577,0.047,8.342,0.453c6.071,0.892,11.854,2.724,17.471,5.22c12.496,5.551,23.502,13.005,31.686,24.17
				c0.62,0.845,1.174,0.594,1.896,0.341c4.716-1.655,8.445-4.629,11.62-8.432c6.841-8.193,15.467-11.752,26.212-10.426
				c4.579,0.565,9.222,1.096,13.877,0.763c2.51-0.18,4.975-0.583,7.601-1.782c-1.133-0.176-1.94-0.288-2.742-0.427
				c-2.169-0.378-4.307-0.881-6.396-1.585c-0.527-0.178-1.068-0.451-0.948-1.066c0.147-0.753,0.779-0.724,1.396-0.565
				c0.202,0.052,0.424,0.018,0.628,0.064c5.632,1.246,11.11,0.36,16.482-1.339C416.008,296.629,419.188,294.914,422.405,292.428z
				 M306.663,171.802c-2.504-0.704-4.762-1.398-7.053-1.957c-1.006-0.246-2.043-0.542-3.118-0.355
				c-4.28,0.744-8.023,2.466-10.768,5.967c-1.543,1.968-2.792,4.055-2.748,6.699c0.02,1.204,0.462,1.776,1.699,1.564
				c2.564-0.438,5.152-0.304,7.734-0.32c1.361-0.009,2.723-0.002,4.096-0.002C295.701,178.326,298.913,174.627,306.663,171.802z
				 M282.301,183.95c-1.378-6.006,2.524-11.119,11.331-15.022c-2.596-0.571-5.234-0.168-7.856-0.061
				c-6.25,0.255-10.704,3.447-13.521,8.889c-1.27,2.454-1.796,5.121-0.405,7.841C275.309,184.816,278.711,184.213,282.301,183.95z
				 M308.628,185.751c-0.357-5.494,3.231-7.47,7.582-9.086c-2.38-1.675-4.765-3.033-7.376-3.992
				c-0.186-0.068-0.424-0.044-0.627-0.006c-2.021,0.374-4.016,0.882-5.758,2.003c-2.605,1.677-4.681,3.797-4.986,7.089
				c-0.066,0.713-0.258,1.785,0.81,1.928C301.71,184.146,305.085,184.911,308.628,185.751z M276.786,170.473
				c-4.687,0.959-8.891,2.894-12.595,5.899c-3.942,3.198-3.726,7.181-1.478,11.173c0.534,0.949,1.277,1.224,2.247,0.801
				c1.919-0.836,3.823-1.708,5.652-2.528C268.586,178.98,271.968,174.467,276.786,170.473z M309.548,184.987
				c-0.14,0.698,0.362,1.26,1.464,1.611c2.402,0.764,4.799,1.532,7.267,2.056c1.63,0.346,3.242-0.557,3.71-2.128
				c0.695-2.329-0.374-4.214-1.706-5.937c-2.802-3.622-3.219-3.61-7.4-1.139C311.03,180.545,309.732,182.223,309.548,184.987z
				 M328.513,195.878c1.344,2.016,4.566,3.469,6.337,2.936c4.191-1.262,6.384-6.769,4.205-10.559
				c-0.204-0.355-0.348-0.839-0.903-0.678c-1.831,0.53-3.734,0.086-5.623,0.356C333.937,191.969,331.577,194.059,328.513,195.878z
				 M328.464,178.193c2.123,2.772,2.306,5.63,0.529,8.619c3.913-0.639,6.512-2.764,7.421-6.417c0.653-2.624-0.13-5.143-2.105-7.386
				C332.495,175.061,330.555,176.714,328.464,178.193z M339.628,187.399c2.35,4.398,1.631,8.126-1.924,11.631
				c1.523-0.279,2.662-0.456,3.785-0.7c2.611-0.566,4.393-2.082,4.742-4.788c0.274-2.122-0.297-4.162-1.455-5.991
				c-0.298-0.47-0.776-0.717-1.355-0.646C342.233,187.051,341.047,187.213,339.628,187.399z M337.902,168.541
				c-0.983,1.267-1.974,2.545-2.955,3.81c2.925,3.096,3.227,6.579,1.817,10.562c1.618-1.311,2.897-2.684,4.134-4.093
				c0.407-0.463,0.858-0.99,1.005-1.561C342.585,174.617,340.395,169.882,337.902,168.541z M321.937,189.846
				c1.996,1.247,3.719,2.773,5.216,4.552c0.285,0.339,0.599,0.626,1.077,0.328c1.668-1.038,3.268-2.107,3.756-4.23
				c0.466-2.026-0.366-2.946-2.334-2.39c-1.395,0.394-2.873,0.632-4.214,0.291C323.861,187.995,322.815,188.281,321.937,189.846z
				 M338.479,167.732c3.051,1.764,3.796,4.773,4.491,7.996c1.426-2.229,2.064-4.491,2.095-6.873
				c0.018-1.401-0.238-2.842-1.093-4.046c-1.213-1.706-2.526-1.69-3.65,0.021C339.717,165.753,339.139,166.692,338.479,167.732z
				 M323.848,186.751c3.141,0.96,4.253,0.506,5.012-2.057c0.511-1.726,0.289-3.421-0.501-5.041
				c-0.323-0.663-0.773-1.029-1.493-0.589c-1.377,0.844-2.909,1.269-4.514,1.626C323.344,182.645,323.983,184.57,323.848,186.751z
				 M346.093,196.974c2.827-0.371,4.45-2.069,4.432-4.516c-0.018-2.455-2.128-4.818-4.615-5.168
				C347.753,192.511,347.776,193.424,346.093,196.974z"/>
			<path style="fill:#6F2C2C;" d="M284.058,105.037c0.537,2.471-0.476,4.525-1.851,6.416c-1.959,2.694-4.396,4.905-7.357,6.931
				c0.001-0.736,0.402-0.924,0.664-1.18c1.81-1.767,3.699-3.458,5.22-5.499c1.332-1.789,2.472-3.659,2.599-5.974
				c0.023-0.422,0.024-0.898,0.686-0.764C284.02,104.967,284.058,105.037,284.058,105.037z"/>
			<path style="fill:#6F2C2C;" d="M256.761,245.087c1.397-1.482,14.008-2.656,15.934-1.535
				C267.368,243.902,262.078,244.6,256.761,245.087z"/>
			<path style="fill:#6F2C2C;" d="M258.479,242.826c1.483-1.721,9.978-2.231,13.848-1.009
				C267.825,241.89,263.349,242.322,258.479,242.826z"/>
			<path style="fill:#DB5A39;" d="M303.152,115.36c0.733,0.269,0.947,0.669,1.017,1.067c0.622,3.537,2.265,6.727,3.406,10.086
				c0.517,1.52,0.699,3.073,0.445,4.651c-0.225,1.396-0.949,2.484-2.416,2.773c-1.388,0.273-2.525-0.328-3.208-1.518
				c-1.28-2.229-1.511-4.638-1.032-7.153C301.985,122.003,302.547,118.729,303.152,115.36z"/>
		</g>
	</g>
</g>
</svg>
